<?xml version="1.0" encoding="utf-8"?>
<!-- Generator: Adobe Illustrator 23.0.1, SVG Export Plug-In . SVG Version: 6.00 Build 0)  -->
<svg version="1.1" id="Layer_1" xmlns="http://www.w3.org/2000/svg" xmlns:xlink="http://www.w3.org/1999/xlink" x="0px" y="0px"
	 viewBox="0 0 500 373.2" style="enable-background:new 0 0 500 373.2;" xml:space="preserve">
<style type="text/css">
	.st0{fill:#106342;}
</style>
<g>
	<path class="st0" d="M487.61,363.06c-4.24,0.21-8.48,0.04-12.71-0.25c-5.45-0.38-10.88-0.95-16.29-1.77
		c-8.12-1.22-16.13-2.95-24.02-5.22c-22-6.35-42.07-16.52-60.11-30.64c-7.57-5.92-14.61-12.43-21.08-19.54
		c-0.42-0.46-0.86-0.9-1.31-1.38c-0.35,0.43-0.05,0.69,0.06,0.94c7.17,16.89,14.36,33.77,21.54,50.66c0.61,1.44,0.56,1.51-1.01,1.51
		c-26.84,0-53.68-0.01-80.52,0.03c-1.19,0-1.65-0.49-2.04-1.5c-8.71-22.68-17.46-45.34-26.16-68.03c-0.39-1.02-0.88-1.37-1.98-1.37
		c-46.62,0.03-93.24,0.03-139.87-0.02c-1.46,0-1.77,0.77-2.17,1.8c-8.65,22.49-17.33,44.97-25.95,67.47
		c-0.48,1.25-1.11,1.64-2.42,1.64c-25.97-0.04-51.93-0.03-77.9-0.03c-0.2,0-0.4,0-0.59,0c-1.26-0.03-1.34-0.15-0.85-1.3
		c3.36-7.92,6.73-15.83,10.1-23.74c6.24-14.66,12.51-29.31,18.69-43.99c0.7-1.67,1.68-2.63,3.33-3.35
		c16.82-7.44,33.78-14.54,50.87-21.32c17.06-6.76,34.26-13.15,51.57-19.25c17.68-6.23,35.47-12.12,53.38-17.68
		c22.97-7.14,46.08-13.78,69.35-19.89c11.69-3.07,23.41-6,35.15-8.87c1.09-0.27,1.51-0.7,1.42-1.84c-0.33-4.35-0.32-8.71-0.22-13.07
		c0.37-16.89,2.89-33.44,7.87-49.6c5.4-17.53,13.34-33.81,23.88-48.82c4.68-6.66,9.8-12.95,15.37-18.89
		c12.74-13.6,27.32-24.8,43.65-33.75c12.78-7,26.26-12.28,40.33-16.05c8.93-2.4,18-4.08,27.18-5.15c4.36-0.51,8.74-0.95,13.14-1.05
		c0.35-0.01,0.7-0.11,1.05-0.17c2.81,0,5.63,0.03,8.44-0.02c0.71-0.01,0.85,0.14,0.85,0.85c-0.03,11.81-0.02,23.63-0.02,35.44
		c0,11.06,0,22.12,0,33.18c-3.41,0.03-6.8,0.19-10.2,0.48c-8.49,0.72-16.77,2.43-24.82,5.2c-16.26,5.6-30.17,14.76-41.66,27.59
		c-7.5,8.37-13.4,17.76-17.76,28.11c-7.63,18.12-9.84,37.01-7.74,56.46c0.9,8.29,2.79,16.39,5.6,24.26
		c6.08,17,15.78,31.55,29.44,43.38c12.49,10.82,26.88,17.95,42.98,21.65c7.94,1.82,16,2.68,24.15,2.67
		C487.61,313.59,487.61,338.32,487.61,363.06z"/>
	<path class="st0" d="M192.02,101.32c-2.54,6.59-4.97,12.91-7.41,19.23c-7.91,20.52-15.82,41.04-23.73,61.56
		c-1.2,3.11-2.42,6.2-3.57,9.33c-0.33,0.89-0.82,1.26-1.77,1.44c-12.33,2.35-24.66,4.74-36.98,7.17
		c-14.15,2.78-28.24,5.82-42.32,8.92c-0.37,0.08-0.83,0.39-1.12,0.05c-0.35-0.39,0.04-0.82,0.2-1.2
		c12.77-30.01,25.54-60.02,38.31-90.03c11.84-27.82,23.67-55.65,35.5-83.47c2.89-6.78,5.79-13.56,8.65-20.35
		c0.35-0.83,0.81-1.12,1.69-1.12c22.36,0.02,44.71,0.02,67.07,0c0.97,0,1.38,0.41,1.73,1.24c9.43,22.21,18.89,44.42,28.34,66.62
		c10.4,24.43,20.8,48.86,31.2,73.29c2.17,5.1,4.31,10.22,6.52,15.31c0.42,0.97,0.28,1.28-0.8,1.43c-9.49,1.3-18.98,2.61-28.46,4
		c-10.15,1.49-20.28,3.05-30.42,4.6c-3.56,0.54-7.12,1.1-10.67,1.73c-1.1,0.19-1.36-0.44-1.66-1.22
		c-3.78-9.84-7.58-19.67-11.37-29.51c-6.13-15.9-12.25-31.8-18.37-47.7C192.44,102.28,192.27,101.92,192.02,101.32z"/>
</g>
</svg>
