<?xml version="1.0" encoding="utf-8"?>
<!-- Generator: Adobe Illustrator 23.0.1, SVG Export Plug-In . SVG Version: 6.00 Build 0)  -->
<svg version="1.1" id="Layer_1" xmlns="http://www.w3.org/2000/svg" xmlns:xlink="http://www.w3.org/1999/xlink" x="0px" y="0px"
	 viewBox="0 0 500 370" style="enable-background:new 0 0 500 370;" xml:space="preserve">
<style type="text/css">
	.st0{fill:#40B049;}
</style>
<g>
	<g>
		<path class="st0" d="M476.36,20.68c0,5.3,0,10.58,0,15.77l0,6.55v20.31c-8.92,0.94-17.64,2.87-25.95,5.73
			c-18.72,6.45-34.86,17.14-47.97,31.78c-8.53,9.53-15.4,20.4-20.42,32.32c-8.32,19.77-11.29,41.3-8.84,64
			c1.01,9.36,3.17,18.68,6.4,27.73c7.04,19.68,18.4,36.4,33.77,49.71c14.16,12.27,30.81,20.66,49.47,24.94
			c4.42,1.01,8.94,1.78,13.54,2.29v47.39c-4.65-0.37-8.99-0.87-13.22-1.5c-7.7-1.16-15.26-2.8-22.48-4.89
			c-20.54-5.93-39.38-15.54-56.01-28.54c-7.05-5.51-13.64-11.62-19.59-18.15c-0.37-0.41-0.76-0.81-1.15-1.22l-0.38-0.39
			c-2.65-2.78-6.32-4.35-10.14-4.35c-0.19,0-0.39,0-0.58,0.01c-4.03,0.17-7.8,2.07-10.33,5.21c-3.61,4.48-4.24,10.54-1.72,15.68
			c4.64,10.93,9.29,21.86,13.94,32.78c-17.66,0-35.78,0-53.74,0.02c-2.87-7.47-5.75-14.94-8.62-22.41
			c-4.98-12.95-9.97-25.9-14.94-38.86c-2.49-6.49-8.12-10.37-15.08-10.37c-21.67,0.01-43.33,0.02-65,0.02
			c-27.36,0-52.33-0.01-76.36-0.04c-3.34,0-11.51,1.05-15.26,10.79c-2.78,7.22-5.56,14.44-8.34,21.66
			c-4.95,12.85-10.04,26.07-15.08,39.21c-15.24-0.02-30.3-0.02-44.46-0.02l-7.33,0c0.83-1.94,1.65-3.89,2.48-5.83
			c1.55-3.64,3.1-7.28,4.65-10.92c4.3-10.09,8.74-20.49,13.08-30.8c15.9-6.99,32.11-13.77,48.21-20.15
			c16.42-6.51,33.31-12.81,51.61-19.27c17.43-6.14,35.41-12.1,53.44-17.7c23.16-7.19,46.54-13.9,69.5-19.93
			c10.5-2.76,22.04-5.67,35.29-8.9c7.82-1.91,12.68-8.54,12.08-16.51c-0.31-4.1-0.27-8.29-0.19-11.85
			c0.36-16.1,2.82-31.69,7.33-46.31c5.03-16.31,12.5-31.59,22.21-45.43c4.29-6.12,9.1-12.03,14.29-17.57
			c11.68-12.46,25.34-23.03,40.63-31.4c11.58-6.34,24.25-11.38,37.66-14.98c8.07-2.17,16.64-3.79,25.47-4.83
			C470.89,21.16,473.62,20.86,476.36,20.68 M489.59,6.31c-0.02,0-0.05,0-0.08,0c-1.31,0.02-2.61,0.03-3.92,0.03
			c-1.54,0-3.08-0.01-4.62-0.01c-0.35,0.06-0.7,0.16-1.06,0.17c-4.45,0.1-8.87,0.54-13.28,1.06c-9.28,1.09-18.44,2.79-27.47,5.21
			c-14.22,3.82-27.84,9.15-40.76,16.23c-16.5,9.04-31.24,20.37-44.12,34.11c-5.62,6-10.81,12.36-15.53,19.09
			c-10.65,15.17-18.67,31.63-24.14,49.35c-5.04,16.33-7.57,33.06-7.95,50.13c-0.1,4.4-0.1,8.81,0.22,13.21
			c0.09,1.16-0.33,1.59-1.44,1.86c-11.87,2.89-23.71,5.86-35.53,8.96c-23.51,6.18-46.88,12.89-70.09,20.1
			c-18.09,5.62-36.08,11.57-53.95,17.87c-17.49,6.17-34.88,12.62-52.12,19.45c-17.28,6.85-34.42,14.03-51.42,21.55
			c-1.66,0.74-2.66,1.71-3.37,3.39c-6.25,14.84-12.58,29.65-18.89,44.46c-3.4,8-6.81,16-10.2,24c-0.5,1.17-0.41,1.28,0.86,1.32
			c0.09,0,0.17,0,0.26,0c0.11,0,0.23,0,0.34,0c0.13,0,0.26,0,0.39,0c8.69,0,17.38,0,26.08,0c17.42,0,34.85,0,52.27,0.03
			c0,0,0.01,0,0.01,0c1.32,0,1.96-0.39,2.44-1.65c8.72-22.74,17.48-45.46,26.23-68.19c0.4-1.05,0.71-1.82,2.19-1.82c0,0,0,0,0,0
			c25.45,0.03,50.9,0.04,76.36,0.04c21.67,0,43.34-0.01,65.01-0.02c0,0,0,0,0,0c1.1,0,1.6,0.35,1.99,1.38
			c8.79,22.92,17.63,45.83,26.44,68.75c0.39,1.02,0.85,1.51,2.05,1.51c0,0,0,0,0.01,0c27.13-0.04,54.25-0.03,81.38-0.03
			c1.59,0,1.64-0.08,1.02-1.53c-7.26-17.07-14.52-34.13-21.77-51.2c-0.11-0.25-0.41-0.52-0.06-0.95c0.46,0.48,0.9,0.93,1.32,1.39
			c6.54,7.18,13.66,13.76,21.31,19.74c18.24,14.27,38.52,24.55,60.76,30.97c7.97,2.3,16.07,4.04,24.28,5.28
			c5.47,0.82,10.96,1.4,16.46,1.79c2.94,0.21,5.89,0.35,8.84,0.35c1.33,0,2.67-0.03,4-0.1c0-25,0-50.01,0-75.01
			c-0.01,0-0.02,0-0.03,0c-8.23,0-16.36-0.86-24.38-2.7c-16.27-3.74-30.82-10.95-43.44-21.88c-13.8-11.95-23.61-26.66-29.75-43.84
			c-2.85-7.95-4.76-16.13-5.66-24.52c-2.13-19.66,0.11-38.75,7.82-57.07c4.4-10.46,10.36-19.95,17.95-28.41
			c11.61-12.96,25.67-22.22,42.1-27.88c8.14-2.8,16.5-4.53,25.08-5.26c3.43-0.29,6.87-0.45,10.31-0.48c0-11.18,0-22.36,0-33.54
			c0-11.94-0.01-23.88,0.02-35.82C490.38,6.48,490.25,6.31,489.59,6.31L489.59,6.31z"/>
	</g>
	<g>
		<path class="st0" d="M218.47,23.64c7.35,17.3,14.71,34.59,22.07,51.88l3.48,8.19l10.66,25.04c6.94,16.31,13.89,32.62,20.83,48.93
			c-4.11,0.58-8.09,1.15-12.1,1.74c-8.38,1.23-16.87,2.53-25.08,3.78l-5.75,0.88c-0.27,0.04-0.55,0.08-0.82,0.13
			c-1.31-3.41-2.63-6.82-3.94-10.23l-4.01-10.4l-8.73-22.67l-9.84-25.54c-0.21-0.54-0.4-0.99-0.58-1.38l-0.2-0.45
			c-2.21-5.15-7.27-8.47-12.86-8.47c-0.09,0-0.18,0-0.27,0c-5.69,0.11-10.75,3.65-12.79,8.96l-3.44,8.93l-4.05,10.5l-7.34,19.06
			l-16.64,43.17c-0.31,0.82-0.63,1.63-0.95,2.45c-0.12,0.31-0.24,0.62-0.36,0.93c-10.37,1.99-20.8,4.02-31.1,6.04
			c-6.12,1.2-12.23,2.46-18.18,3.7c4.21-9.89,8.42-19.78,12.63-29.66l16.15-37.95c7.24-17.03,14.49-34.05,21.73-51.08l14.16-33.28
			c0.88-2.07,1.77-4.14,2.65-6.22c0.98-2.29,1.97-4.62,2.96-6.96c8.28,0.01,16.55,0.01,24.83,0.01
			C200.55,23.65,209.51,23.65,218.47,23.64 M226.51,9.64C226.51,9.64,226.51,9.64,226.51,9.64c-11.64,0.01-23.28,0.02-34.92,0.02
			c-10.96,0-21.92,0-32.87-0.01c0,0,0,0,0,0c-0.89,0-1.36,0.29-1.71,1.13c-2.89,6.87-5.83,13.71-8.74,20.57
			c-11.96,28.12-23.92,56.24-35.88,84.36c-12.91,30.33-25.82,60.66-38.72,90.99c-0.16,0.38-0.55,0.82-0.21,1.21
			c0.1,0.11,0.22,0.15,0.35,0.15c0.25,0,0.54-0.15,0.79-0.21c14.23-3.13,28.48-6.2,42.78-9.01c12.45-2.45,24.91-4.86,37.37-7.24
			c0.96-0.18,1.46-0.56,1.79-1.46c1.16-3.16,2.4-6.29,3.61-9.43c7.99-20.74,15.99-41.48,23.98-62.22
			c2.46-6.39,4.92-12.77,7.49-19.43c0.26,0.6,0.43,0.96,0.57,1.33c6.19,16.07,12.38,32.14,18.57,48.21
			c3.83,9.94,7.67,19.88,11.49,29.82c0.27,0.69,0.5,1.27,1.3,1.27c0.11,0,0.24-0.01,0.38-0.04c3.59-0.63,7.18-1.2,10.79-1.75
			c10.25-1.56,20.49-3.15,30.74-4.65c9.58-1.4,19.17-2.73,28.77-4.04c1.1-0.15,1.23-0.46,0.81-1.44
			c-2.22-5.15-4.39-10.32-6.58-15.48c-10.51-24.69-21.02-49.38-31.53-74.07c-9.55-22.44-19.11-44.88-28.64-67.33
			C227.9,10.05,227.49,9.64,226.51,9.64L226.51,9.64z"/>
	</g>
</g>
</svg>
